<mxfile host="app.diagrams.net" modified="2023-06-17T09:26:48.896Z" agent="Mozilla/5.0 (Windows NT 10.0; Win64; x64) AppleWebKit/537.36 (KHTML, like Gecko) Chrome/114.0.0.0 Safari/537.36" etag="BoPVpPPC_UgZHzTKpbG8" version="21.4.0" type="device">
  <diagram name="PÃ¡gina-1" id="cPhWMYcWoGg_ueRt6soN">
    <mxGraphModel dx="420" dy="226" grid="1" gridSize="10" guides="1" tooltips="1" connect="1" arrows="1" fold="1" page="1" pageScale="1" pageWidth="827" pageHeight="1169" math="0" shadow="0">
      <root>
        <mxCell id="0" />
        <mxCell id="1" parent="0" />
        <mxCell id="eT5408KSJoodTYUnBFvF-1" value="" style="rounded=0;whiteSpace=wrap;html=1;rotation=-90;imageWidth=24;fillColor=#eeeeee;strokeColor=#36393d;" vertex="1" parent="1">
          <mxGeometry x="380" y="210" width="209.8421" height="119.91" as="geometry" />
        </mxCell>
        <mxCell id="eT5408KSJoodTYUnBFvF-2" value="deviceName" style="rounded=0;whiteSpace=wrap;html=1;fillColor=#1ba1e2;strokeColor=#006EAF;fontColor=#ffffff;" vertex="1" parent="1">
          <mxGeometry x="430" y="170" width="110" height="20" as="geometry" />
        </mxCell>
        <mxCell id="eT5408KSJoodTYUnBFvF-3" value="" style="rounded=0;whiteSpace=wrap;html=1;fillColor=#bac8d3;strokeColor=#23445d;" vertex="1" parent="1">
          <mxGeometry x="430" y="200" width="110" height="110" as="geometry" />
        </mxCell>
        <mxCell id="eT5408KSJoodTYUnBFvF-4" value="" style="endArrow=none;html=1;rounded=0;exitX=0;exitY=0.5;exitDx=0;exitDy=0;entryX=1;entryY=0.5;entryDx=0;entryDy=0;" edge="1" parent="1" source="eT5408KSJoodTYUnBFvF-3" target="eT5408KSJoodTYUnBFvF-3">
          <mxGeometry width="50" height="50" relative="1" as="geometry">
            <mxPoint x="620" y="290" as="sourcePoint" />
            <mxPoint x="670" y="240" as="targetPoint" />
          </mxGeometry>
        </mxCell>
        <mxCell id="eT5408KSJoodTYUnBFvF-6" value="" style="endArrow=none;html=1;rounded=0;exitX=0.5;exitY=0;exitDx=0;exitDy=0;entryX=0.5;entryY=1;entryDx=0;entryDy=0;" edge="1" parent="1" source="eT5408KSJoodTYUnBFvF-3" target="eT5408KSJoodTYUnBFvF-3">
          <mxGeometry width="50" height="50" relative="1" as="geometry">
            <mxPoint x="620" y="290" as="sourcePoint" />
            <mxPoint x="670" y="240" as="targetPoint" />
          </mxGeometry>
        </mxCell>
        <mxCell id="eT5408KSJoodTYUnBFvF-7" value="" style="rounded=0;whiteSpace=wrap;html=1;fillColor=#b0e3e6;strokeColor=#0e8088;" vertex="1" parent="1">
          <mxGeometry x="430" y="320" width="110" height="50" as="geometry" />
        </mxCell>
        <mxCell id="eT5408KSJoodTYUnBFvF-11" value="" style="endArrow=none;html=1;rounded=0;exitX=0.011;exitY=0.369;exitDx=0;exitDy=0;exitPerimeter=0;entryX=1.008;entryY=0.369;entryDx=0;entryDy=0;entryPerimeter=0;" edge="1" parent="1" source="eT5408KSJoodTYUnBFvF-7" target="eT5408KSJoodTYUnBFvF-7">
          <mxGeometry width="50" height="50" relative="1" as="geometry">
            <mxPoint x="430" y="333" as="sourcePoint" />
            <mxPoint x="540" y="338" as="targetPoint" />
          </mxGeometry>
        </mxCell>
        <mxCell id="eT5408KSJoodTYUnBFvF-12" value="" style="endArrow=none;html=1;rounded=0;exitX=-0.003;exitY=0.642;exitDx=0;exitDy=0;entryX=0.994;entryY=0.642;entryDx=0;entryDy=0;exitPerimeter=0;entryPerimeter=0;" edge="1" parent="1" source="eT5408KSJoodTYUnBFvF-7" target="eT5408KSJoodTYUnBFvF-7">
          <mxGeometry width="50" height="50" relative="1" as="geometry">
            <mxPoint x="440" y="355" as="sourcePoint" />
            <mxPoint x="550" y="355" as="targetPoint" />
          </mxGeometry>
        </mxCell>
        <mxCell id="eT5408KSJoodTYUnBFvF-13" value="Text" style="text;html=1;strokeColor=none;fillColor=none;align=center;verticalAlign=middle;whiteSpace=wrap;rounded=0;" vertex="1" parent="1">
          <mxGeometry x="580" y="320" width="60" height="30" as="geometry" />
        </mxCell>
        <mxCell id="eT5408KSJoodTYUnBFvF-14" value="" style="endArrow=none;html=1;rounded=0;fillColor=#e1d5e7;strokeColor=#9673a6;exitX=0.096;exitY=0.999;exitDx=0;exitDy=0;exitPerimeter=0;entryX=0.099;entryY=-0.001;entryDx=0;entryDy=0;entryPerimeter=0;" edge="1" parent="1" source="eT5408KSJoodTYUnBFvF-7" target="eT5408KSJoodTYUnBFvF-7">
          <mxGeometry width="50" height="50" relative="1" as="geometry">
            <mxPoint x="470" y="330" as="sourcePoint" />
            <mxPoint x="520" y="280" as="targetPoint" />
          </mxGeometry>
        </mxCell>
        <mxCell id="eT5408KSJoodTYUnBFvF-15" value="" style="endArrow=none;html=1;rounded=0;fillColor=#e1d5e7;strokeColor=#9673a6;exitX=0.096;exitY=0.999;exitDx=0;exitDy=0;exitPerimeter=0;entryX=0.099;entryY=-0.001;entryDx=0;entryDy=0;entryPerimeter=0;" edge="1" parent="1">
          <mxGeometry width="50" height="50" relative="1" as="geometry">
            <mxPoint x="460" y="370" as="sourcePoint" />
            <mxPoint x="460" y="320" as="targetPoint" />
          </mxGeometry>
        </mxCell>
        <mxCell id="eT5408KSJoodTYUnBFvF-16" value="" style="endArrow=none;html=1;rounded=0;fillColor=#e1d5e7;strokeColor=#9673a6;exitX=0.096;exitY=0.999;exitDx=0;exitDy=0;exitPerimeter=0;entryX=0.099;entryY=-0.001;entryDx=0;entryDy=0;entryPerimeter=0;fontStyle=1" edge="1" parent="1">
          <mxGeometry width="50" height="50" relative="1" as="geometry">
            <mxPoint x="480" y="370" as="sourcePoint" />
            <mxPoint x="480" y="320" as="targetPoint" />
          </mxGeometry>
        </mxCell>
        <mxCell id="eT5408KSJoodTYUnBFvF-17" value="" style="endArrow=none;html=1;rounded=0;fillColor=#e1d5e7;strokeColor=#9673a6;exitX=0.096;exitY=0.999;exitDx=0;exitDy=0;exitPerimeter=0;entryX=0.099;entryY=-0.001;entryDx=0;entryDy=0;entryPerimeter=0;" edge="1" parent="1">
          <mxGeometry width="50" height="50" relative="1" as="geometry">
            <mxPoint x="500" y="370" as="sourcePoint" />
            <mxPoint x="500" y="320" as="targetPoint" />
          </mxGeometry>
        </mxCell>
        <mxCell id="eT5408KSJoodTYUnBFvF-18" value="" style="endArrow=none;html=1;rounded=0;fillColor=#e1d5e7;strokeColor=#9673a6;exitX=0.096;exitY=0.999;exitDx=0;exitDy=0;exitPerimeter=0;entryX=0.099;entryY=-0.001;entryDx=0;entryDy=0;entryPerimeter=0;" edge="1" parent="1">
          <mxGeometry width="50" height="50" relative="1" as="geometry">
            <mxPoint x="520" y="370" as="sourcePoint" />
            <mxPoint x="520" y="320" as="targetPoint" />
          </mxGeometry>
        </mxCell>
        <mxCell id="eT5408KSJoodTYUnBFvF-19" value="" style="endArrow=none;html=1;rounded=0;fillColor=#e1d5e7;strokeColor=#9673a6;exitX=0.096;exitY=0.999;exitDx=0;exitDy=0;exitPerimeter=0;entryX=0.099;entryY=-0.001;entryDx=0;entryDy=0;entryPerimeter=0;" edge="1" parent="1">
          <mxGeometry width="50" height="50" relative="1" as="geometry">
            <mxPoint x="530" y="370" as="sourcePoint" />
            <mxPoint x="530" y="320" as="targetPoint" />
          </mxGeometry>
        </mxCell>
      </root>
    </mxGraphModel>
  </diagram>
</mxfile>
